<svg width="545" height="265" viewBox="0 0 545 265" fill="none" xmlns="http://www.w3.org/2000/svg">
<rect width="545" height="265" fill="white"/>
<rect x="24" y="134" width="498" height="102" rx="10" fill="black"/>
<path d="M97.552 184C97.552 195.968 94.352 205.12 87.952 211.456C81.616 217.792 72.56 220.96 60.784 220.96C53.936 220.96 47.536 220.48 41.584 219.52V150.4C47.536 149.44 53.936 148.96 60.784 148.96C72.496 148.96 81.552 152.032 87.952 158.176C94.352 164.256 97.552 172.864 97.552 184ZM84.784 184C84.784 167.808 77.008 159.712 61.456 159.712C59.024 159.712 56.816 159.904 54.832 160.288V209.632C56.816 210.016 59.024 210.208 61.456 210.208C69.264 210.208 75.088 208.064 78.928 203.776C82.832 199.488 84.784 192.896 84.784 184ZM121.868 160.768V177.952H149.996V188.224H121.868V209.152H151.916V220H108.428V149.92H151.916V160.768H121.868ZM206.235 163.84C200.411 160.96 194.171 159.52 187.515 159.52C183.931 159.52 181.179 160.288 179.259 161.824C177.339 163.36 176.379 165.408 176.379 167.968C176.379 172.512 179.675 175.712 186.267 177.568C195.227 180.064 201.531 183.104 205.179 186.688C208.891 190.272 210.747 194.912 210.747 200.608C210.747 207.2 208.571 212.256 204.219 215.776C199.867 219.232 193.563 220.96 185.307 220.96C176.923 220.96 169.403 218.88 162.747 214.72L166.107 203.968C172.251 208.128 178.747 210.208 185.595 210.208C189.371 210.208 192.219 209.408 194.139 207.808C196.123 206.144 197.115 203.808 197.115 200.8C197.115 198.048 196.315 195.872 194.715 194.272C193.179 192.672 190.363 191.264 186.267 190.048C178.075 187.68 172.123 184.704 168.411 181.12C164.763 177.536 162.939 173.152 162.939 167.968C162.939 162.208 165.051 157.6 169.275 154.144C173.563 150.688 179.547 148.96 187.227 148.96C195.163 148.96 202.427 150.464 209.019 153.472L206.235 163.84ZM225.473 220V149.92H240.161V220H225.473ZM291.577 159.616C283.705 159.616 277.561 161.888 273.145 166.432C268.729 170.976 266.521 177.152 266.521 184.96C266.521 192.768 268.825 198.944 273.433 203.488C278.105 208.032 284.377 210.304 292.249 210.304C296.217 210.304 299.737 209.664 302.809 208.384V188.224H283.321V177.952H315.577V215.872C308.025 219.264 299.833 220.96 291.001 220.96C279.417 220.96 270.169 217.728 263.257 211.264C256.345 204.736 252.889 195.968 252.889 184.96C252.889 173.888 256.217 165.12 262.873 158.656C269.529 152.192 278.681 148.96 290.329 148.96C298.905 148.96 306.425 151.008 312.889 155.104L308.857 164.8C303.097 161.344 297.337 159.616 291.577 159.616ZM329.772 220V149.92H342.924L371.82 197.632H372.012V149.92H385.164V220H372.012L343.116 172.288H342.924V220H329.772ZM413.805 160.768V177.952H441.933V188.224H413.805V209.152H443.853V220H400.365V149.92H443.853V160.768H413.805ZM513.99 184C513.99 195.968 510.79 205.12 504.39 211.456C498.054 217.792 488.998 220.96 477.222 220.96C470.374 220.96 463.974 220.48 458.022 219.52V150.4C463.974 149.44 470.374 148.96 477.222 148.96C488.934 148.96 497.99 152.032 504.39 158.176C510.79 164.256 513.99 172.864 513.99 184ZM501.222 184C501.222 167.808 493.446 159.712 477.894 159.712C475.462 159.712 473.254 159.904 471.27 160.288V209.632C473.254 210.016 475.462 210.208 477.894 210.208C485.702 210.208 491.526 208.064 495.366 203.776C499.27 199.488 501.222 192.896 501.222 184Z" fill="white"/>
<g filter="url(#filter0_d_1_36)">
<path d="M46.768 96.248C53.168 102.776 61.68 106.04 72.304 106.04C82.928 106.04 91.408 102.776 97.744 96.248C104.144 89.784 107.344 81.048 107.344 70.04C107.344 59.032 104.144 50.264 97.744 43.736C91.408 37.272 82.928 34.04 72.304 34.04C61.68 34.04 53.168 37.272 46.768 43.736C40.432 50.264 37.264 59.032 37.264 70.04C37.264 81.048 40.432 89.784 46.768 96.248ZM56.752 51.608C60.592 47.256 65.776 45.08 72.304 45.08C78.832 45.08 84.016 47.256 87.856 51.608C91.696 56.024 93.616 62.168 93.616 70.04C93.616 77.912 91.696 84.024 87.856 88.376C84.016 92.792 78.832 95 72.304 95C65.776 95 60.592 92.792 56.752 88.376C52.912 84.024 50.992 77.912 50.992 70.04C50.992 62.168 52.912 56.024 56.752 51.608ZM124.776 105.08L141.96 48.152H142.152L159.528 105.08H173.544L149.16 35H134.76L110.472 105.08H124.776ZM197.337 94.232V77.048H225.465V66.776H197.337V45.848H227.385V35H183.897V105.08H227.385V94.232H197.337ZM254.801 62.36V35H241.553V104.6C248.081 105.56 255.121 106.04 262.673 106.04C272.081 106.04 279.121 104.28 283.793 100.76C288.465 97.304 290.801 92.408 290.801 86.072C290.801 81.464 289.553 77.432 287.057 73.976C284.625 70.52 281.297 68.12 277.073 66.776V66.584C280.145 64.792 282.801 60.984 285.041 55.16L292.721 35H278.897L271.601 54.872C270.449 57.944 269.137 59.96 267.665 60.92C266.193 61.88 263.665 62.36 260.081 62.36H254.801ZM254.801 72.536H260.465C271.857 72.536 277.553 76.6 277.553 84.728C277.553 91.96 272.273 95.576 261.713 95.576C259.089 95.576 256.785 95.384 254.801 95V72.536Z" fill="black"/>
</g>
<rect x="303" y="21" width="219" height="102" rx="10" fill="black"/>
<defs>
<filter id="filter0_d_1_36" x="33.264" y="34.04" width="263.457" height="80" filterUnits="userSpaceOnUse" color-interpolation-filters="sRGB">
<feFlood flood-opacity="0" result="BackgroundImageFix"/>
<feColorMatrix in="SourceAlpha" type="matrix" values="0 0 0 0 0 0 0 0 0 0 0 0 0 0 0 0 0 0 127 0" result="hardAlpha"/>
<feOffset dy="4"/>
<feGaussianBlur stdDeviation="2"/>
<feComposite in2="hardAlpha" operator="out"/>
<feColorMatrix type="matrix" values="0 0 0 0 0 0 0 0 0 0 0 0 0 0 0 0 0 0 0.25 0"/>
<feBlend mode="normal" in2="BackgroundImageFix" result="effect1_dropShadow_1_36"/>
<feBlend mode="normal" in="SourceGraphic" in2="effect1_dropShadow_1_36" result="shape"/>
</filter>
</defs>
</svg>
